<svg xmlns="http://www.w3.org/2000/svg" width="26" height="24" viewBox="0 0 26 24">
  <path id="Icon_awesome-arrow-left" data-name="Icon awesome-arrow-left" d="M14.942,25.04l-1.288,1.22a1.442,1.442,0,0,1-1.967,0L.406,15.582a1.265,1.265,0,0,1,0-1.863L11.686,3.035a1.442,1.442,0,0,1,1.967,0l1.288,1.22a1.272,1.272,0,0,1-.023,1.885L7.926,12.449H24.6A1.354,1.354,0,0,1,26,13.768v1.759A1.354,1.354,0,0,1,24.6,16.846H7.926l6.993,6.309A1.263,1.263,0,0,1,14.942,25.04Z" transform="translate(0.004 -2.647)" fill="#fff"/>
</svg>
