<svg xmlns="http://www.w3.org/2000/svg" width="13.39" height="15.764" viewBox="0 0 13.39 15.764">
  <path id="Icon_awesome-code-branch" data-name="Icon awesome-code-branch" d="M13.39,4.434A2.641,2.641,0,0,0,10.6,1.971a2.641,2.641,0,0,0-2.79,2.463A2.528,2.528,0,0,0,9.816,6.8a1.745,1.745,0,0,1-.384,1.136c-.537.591-1.719.69-2.971.791a9.386,9.386,0,0,0-2.835.52V4.812A2.518,2.518,0,0,0,5.579,2.463,2.641,2.641,0,0,0,2.79,0,2.641,2.641,0,0,0,0,2.463,2.518,2.518,0,0,0,1.953,4.812v6.136A2.524,2.524,0,0,0,0,13.3a2.641,2.641,0,0,0,2.79,2.463A2.641,2.641,0,0,0,5.579,13.3,2.488,2.488,0,0,0,3.794,11a1.185,1.185,0,0,1,.52-.413,7.834,7.834,0,0,1,2.3-.394c1.472-.12,3.138-.259,4.122-1.336a3.065,3.065,0,0,0,.753-2.091A2.52,2.52,0,0,0,13.39,4.434ZM2.79,1.971a.53.53,0,0,1,.558.493.53.53,0,0,1-.558.493.53.53,0,0,1-.558-.493A.53.53,0,0,1,2.79,1.971Zm0,11.823a.5.5,0,1,1,0-.985.5.5,0,1,1,0,.985ZM10.6,3.941a.53.53,0,0,1,.558.493.562.562,0,0,1-1.116,0A.53.53,0,0,1,10.6,3.941Z" fill="#fff"/>
</svg>
