<svg xmlns="http://www.w3.org/2000/svg" width="44.5" height="49" viewBox="0 0 44.5 49">
  <path id="Icon_awesome-calendar-alt" data-name="Icon awesome-calendar-alt" d="M0,44.406A4.684,4.684,0,0,0,4.768,49H39.732A4.684,4.684,0,0,0,44.5,44.406V18.375H0ZM31.786,25.648A1.174,1.174,0,0,1,32.978,24.5h3.973a1.174,1.174,0,0,1,1.192,1.148v3.828a1.174,1.174,0,0,1-1.192,1.148H32.978a1.174,1.174,0,0,1-1.192-1.148Zm0,12.25a1.174,1.174,0,0,1,1.192-1.148h3.973A1.174,1.174,0,0,1,38.143,37.9v3.828a1.174,1.174,0,0,1-1.192,1.148H32.978a1.174,1.174,0,0,1-1.192-1.148ZM19.071,25.648A1.174,1.174,0,0,1,20.263,24.5h3.973a1.174,1.174,0,0,1,1.192,1.148v3.828a1.174,1.174,0,0,1-1.192,1.148H20.263a1.174,1.174,0,0,1-1.192-1.148Zm0,12.25a1.174,1.174,0,0,1,1.192-1.148h3.973A1.174,1.174,0,0,1,25.429,37.9v3.828a1.174,1.174,0,0,1-1.192,1.148H20.263a1.174,1.174,0,0,1-1.192-1.148ZM6.357,25.648A1.174,1.174,0,0,1,7.549,24.5h3.973a1.174,1.174,0,0,1,1.192,1.148v3.828a1.174,1.174,0,0,1-1.192,1.148H7.549a1.174,1.174,0,0,1-1.192-1.148Zm0,12.25A1.174,1.174,0,0,1,7.549,36.75h3.973A1.174,1.174,0,0,1,12.714,37.9v3.828a1.174,1.174,0,0,1-1.192,1.148H7.549a1.174,1.174,0,0,1-1.192-1.148ZM39.732,6.125H34.964V1.531A1.566,1.566,0,0,0,33.375,0H30.2a1.566,1.566,0,0,0-1.589,1.531V6.125H15.893V1.531A1.566,1.566,0,0,0,14.3,0H11.125A1.566,1.566,0,0,0,9.536,1.531V6.125H4.768A4.684,4.684,0,0,0,0,10.719v4.594H44.5V10.719A4.684,4.684,0,0,0,39.732,6.125Z" fill="#f35151"/>
</svg>
