<svg xmlns="http://www.w3.org/2000/svg" width="17.45" height="16" viewBox="0 0 17.45 16">
  <path id="Icon_awesome-layer-group" data-name="Icon awesome-layer-group" d="M.423,4.625l7.939,3.3a.945.945,0,0,0,.726,0l7.939-3.3a.674.674,0,0,0,0-1.251L9.088.072a.945.945,0,0,0-.726,0L.423,3.374a.674.674,0,0,0,0,1.251Zm16.6,2.759-1.98-.823L9.538,8.851a2.127,2.127,0,0,1-1.626,0L2.4,6.561l-1.98.823a.673.673,0,0,0,0,1.25l7.939,3.3a.948.948,0,0,0,.726,0l7.939-3.3a.673.673,0,0,0,0-1.25Zm0,3.994-1.972-.82L9.538,12.851a2.127,2.127,0,0,1-1.626,0L2.4,10.558l-1.973.82a.673.673,0,0,0,0,1.25l7.939,3.3a.948.948,0,0,0,.726,0l7.939-3.3a.673.673,0,0,0,0-1.25Z" transform="translate(0 0.001)" fill="#fff"/>
</svg>
