<svg xmlns="http://www.w3.org/2000/svg" width="15.35" height="12.71" viewBox="0 0 15.35 12.71">
  <path id="Icon_material-business" data-name="Icon material-business" d="M10.675,7.324V4.5H3V17.21H18.35V7.324ZM6.07,15.8H4.535V14.386H6.07Zm0-2.824H4.535V11.561H6.07Zm0-2.824H4.535V8.737H6.07Zm0-2.824H4.535V5.912H6.07ZM9.14,15.8H7.605V14.386H9.14Zm0-2.824H7.605V11.561H9.14Zm0-2.824H7.605V8.737H9.14Zm0-2.824H7.605V5.912H9.14ZM16.815,15.8h-6.14V14.386H12.21V12.973H10.675V11.561H12.21V10.149H10.675V8.737h6.14ZM15.28,10.149H13.745v1.412H15.28Zm0,2.824H13.745v1.412H15.28Z" transform="translate(-3 -4.5)" fill="#fff"/>
</svg>
