<svg xmlns="http://www.w3.org/2000/svg" width="20.99" height="18.5" viewBox="0 0 20.99 18.5">
  <path id="Icon_ionic-ios-person" data-name="Icon ionic-ios-person" d="M25.48,22.533c-.394-1.532-2.64-2.279-3.417-2.52a28.555,28.555,0,0,0-2.848-.482A3.08,3.08,0,0,1,17.9,19a8.955,8.955,0,0,1-.087-2.375,6.917,6.917,0,0,0,.623-1.045,12.119,12.119,0,0,0,.459-1.826s.448,0,.607-.694c.169-.756.437-1.05.4-1.614s-.377-.54-.377-.54A7.534,7.534,0,0,0,19.9,8.431C19.948,6.451,18.188,4.5,15,4.5c-3.231,0-4.953,1.951-4.9,3.931a7.855,7.855,0,0,0,.366,2.471s-.344-.014-.377.54.235.858.4,1.614c.153.694.607.694.607.694a12.119,12.119,0,0,0,.459,1.826,6.917,6.917,0,0,0,.623,1.045A8.955,8.955,0,0,1,12.093,19a3.08,3.08,0,0,1-1.317.535,28.556,28.556,0,0,0-2.848.482c-.776.241-3.023.988-3.417,2.52A.4.4,0,0,0,4.943,23H25.054A.4.4,0,0,0,25.48,22.533Z" transform="translate(-4.501 -4.5)" fill="#fff"/>
</svg>
