<svg xmlns="http://www.w3.org/2000/svg" width="14.82" height="25.145" viewBox="0 0 14.82 25.145">
  <g id="Icon_ionic-ios-man" data-name="Icon ionic-ios-man" transform="translate(-9.984 -1.125)">
    <path id="Path_6" data-name="Path 6" d="M18.983,7.5h-.018c-2.307,0-4.2-1.427-4.2-3.185s1.883-3.185,4.2-3.185,4.2,1.427,4.2,3.185a2.825,2.825,0,0,1-1.227,2.25A4.849,4.849,0,0,1,18.983,7.5Z" transform="translate(-1.592)" fill="#fff"/>
    <path id="Path_7" data-name="Path 7" d="M15.135,26.27c-.936,0-1.756-.5-1.756-1.451l.065-13.249h-.65v5.011a1.007,1.007,0,0,1-.416.873,1.752,1.752,0,0,1-1.977,0,1,1,0,0,1-.416-.873v-5.8a2.364,2.364,0,0,1,.9-1.833,3.915,3.915,0,0,1,2.536-.859h7.953a3.892,3.892,0,0,1,2.536.864,2.355,2.355,0,0,1,.9,1.828v5.8a.98.98,0,0,1-.429.873,1.865,1.865,0,0,1-2.016,0,.98.98,0,0,1-.429-.873V11.57h-.585V24.819c0,.94-.871,1.451-1.808,1.451a1.608,1.608,0,0,1-1.782-1.422V18.109h-.78v6.725A1.646,1.646,0,0,1,15.135,26.27Z" fill="#fff"/>
  </g>
</svg>
