<svg xmlns="http://www.w3.org/2000/svg" width="20.14" height="13.61" viewBox="0 0 20.14 13.61">
  <path id="Icon_awesome-money-bill" data-name="Icon awesome-money-bill" d="M19.133,4.5H1.007A1.076,1.076,0,0,0,0,5.634V16.976A1.076,1.076,0,0,0,1.007,18.11H19.133a1.076,1.076,0,0,0,1.007-1.134V5.634A1.076,1.076,0,0,0,19.133,4.5ZM1.51,16.409V14.14a2.152,2.152,0,0,1,2.014,2.268Zm0-7.939V6.2H3.524A2.152,2.152,0,0,1,1.51,8.47Zm8.559,6.238c-1.391,0-2.517-1.524-2.517-3.4S8.68,7.9,10.07,7.9s2.517,1.523,2.517,3.4S11.46,14.707,10.07,14.707Zm8.56,1.7H16.616A2.152,2.152,0,0,1,18.63,14.14Zm0-7.939A2.152,2.152,0,0,1,16.616,6.2H18.63Z" transform="translate(0 -4.5)" fill="#fff"/>
</svg>
