<svg xmlns="http://www.w3.org/2000/svg" width="13.73" height="16" viewBox="0 0 13.73 16">
  <path id="Icon_awesome-object-ungroup" data-name="Icon awesome-object-ungroup" d="M1.526,12.536v.929c0,.118-.064.214-.143.214H.143c-.079,0-.143-.1-.143-.214V11.607c0-.118.064-.214.143-.214h.62V4.536H.143C.064,4.536,0,4.44,0,4.321V2.464c0-.118.064-.214.143-.214h1.24c.079,0,.143.1.143.214v.929H8.391V2.464c0-.118.064-.214.143-.214h1.24c.079,0,.143.1.143.214V4.321c0,.118-.064.214-.143.214h-.62v6.857h.62c.079,0,.143.1.143.214v1.857c0,.118-.064.214-.143.214H8.534c-.079,0-.143-.1-.143-.214v-.929ZM12.967,10.25V9.107h.62c.079,0,.143-.1.143-.214V7.036c0-.118-.064-.214-.143-.214h-1.24c-.079,0-.143.1-.143.214v.929H9.725v2.571h.191c.316,0,.572.384.572.857v2.286c0,.473-.256.857-.572.857H8.391c-.316,0-.572-.384-.572-.857v-.286H4.577v2.571h-.62c-.079,0-.143.1-.143.214v1.857c0,.118.064.214.143.214H5.2c.079,0,.143-.1.143-.214v-.929H12.2v.929c0,.118.064.214.143.214h1.24c.079,0,.143-.1.143-.214V16.179c0-.118-.064-.214-.143-.214h-.62Z" transform="translate(0 -2.25)" fill="#fff"/>
</svg>
