<svg xmlns="http://www.w3.org/2000/svg" width="13.45" height="14" viewBox="0 0 13.45 14">
  <path id="Icon_awesome-list-ul" data-name="Icon awesome-list-ul" d="M1.261,3.375A1.472,1.472,0,0,0,0,4.99,1.472,1.472,0,0,0,1.261,6.606,1.472,1.472,0,0,0,2.522,4.99,1.472,1.472,0,0,0,1.261,3.375Zm0,5.385A1.472,1.472,0,0,0,0,10.375,1.472,1.472,0,0,0,1.261,11.99a1.472,1.472,0,0,0,1.261-1.615A1.472,1.472,0,0,0,1.261,8.76Zm0,5.385A1.472,1.472,0,0,0,0,15.76a1.472,1.472,0,0,0,1.261,1.615A1.472,1.472,0,0,0,2.522,15.76,1.472,1.472,0,0,0,1.261,14.144Zm11.769.538H4.623a.491.491,0,0,0-.42.538V16.3a.491.491,0,0,0,.42.538H13.03a.491.491,0,0,0,.42-.538V15.221A.491.491,0,0,0,13.03,14.683Zm0-10.769H4.623a.491.491,0,0,0-.42.538V5.529a.491.491,0,0,0,.42.538H13.03a.491.491,0,0,0,.42-.538V4.452A.491.491,0,0,0,13.03,3.913Zm0,5.385H4.623a.491.491,0,0,0-.42.538v1.077a.491.491,0,0,0,.42.538H13.03a.491.491,0,0,0,.42-.538V9.837A.491.491,0,0,0,13.03,9.3Z" transform="translate(0 -3.375)" fill="#fff"/>
</svg>
