<svg xmlns="http://www.w3.org/2000/svg" width="20.14" height="20.37" viewBox="0 0 20.14 20.37">
  <path id="Icon_metro-organization" data-name="Icon metro-organization" d="M21.762,9.567H7.376A2.728,2.728,0,0,0,4.5,12.113v1.273a2.5,2.5,0,0,0,1.439,2.193v4.172h5.754V22.3h5.754V19.752H23.2V15.579a2.5,2.5,0,0,0,1.439-2.193V12.113A2.728,2.728,0,0,0,21.762,9.567ZM10.253,18.479H7.376V13.386H5.937V12.113A1.364,1.364,0,0,1,7.376,10.84H9.213a2.3,2.3,0,0,0-.4,1.273v2.546a2.5,2.5,0,0,0,1.439,2.193Zm7.193-2.546V13.386H16.007v7.639H13.13V13.386H11.692v2.546a1.364,1.364,0,0,1-1.439-1.273V12.113a1.364,1.364,0,0,1,1.439-1.273h5.754a1.363,1.363,0,0,1,1.439,1.273v2.546a1.363,1.363,0,0,1-1.439,1.273ZM23.2,13.386H21.762v5.093H18.884V16.852a2.5,2.5,0,0,0,1.439-2.193V12.113a2.3,2.3,0,0,0-.4-1.273h1.838A1.363,1.363,0,0,1,23.2,12.113ZM11.325,8.241a4.632,4.632,0,0,0,6.488,0,2.936,2.936,0,0,0,2.51,1.325A2.728,2.728,0,0,0,23.2,7.021a2.728,2.728,0,0,0-2.877-2.546,3.122,3.122,0,0,0-1.559.412,4.231,4.231,0,0,0-4.195-2.958,4.23,4.23,0,0,0-4.195,2.958,3.126,3.126,0,0,0-1.559-.412A2.728,2.728,0,0,0,5.937,7.021,2.728,2.728,0,0,0,8.814,9.567a2.937,2.937,0,0,0,2.51-1.325Zm9-2.494a1.362,1.362,0,0,1,1.439,1.273,1.449,1.449,0,0,1-2.877,0A1.363,1.363,0,0,1,20.323,5.747ZM14.569,3.2a2.728,2.728,0,0,1,2.877,2.546,2.728,2.728,0,0,1-2.877,2.546,2.728,2.728,0,0,1-2.877-2.546A2.728,2.728,0,0,1,14.569,3.2ZM8.814,8.294A1.363,1.363,0,0,1,7.376,7.021,1.363,1.363,0,0,1,8.814,5.747a1.362,1.362,0,0,1,1.439,1.273A1.362,1.362,0,0,1,8.814,8.294Z" transform="translate(-4.499 -1.928)" fill="#fff"/>
</svg>
