<svg xmlns="http://www.w3.org/2000/svg" width="18.34" height="24.75" viewBox="0 0 18.34 24.75">
  <path id="Icon_awesome-capsules" data-name="Icon awesome-capsules" d="M17.681,17.061,13.507,6.714c-.71-1.757-1.84-2.7-2.987-2.7A2.74,2.74,0,0,0,8.435,5.161,7.024,7.024,0,0,0,7.113,8.134C7.021,4.858,5.477,2.25,3.566,2.25,1.6,2.25,0,5.018,0,8.437V20.813C0,24.232,1.6,27,3.566,27s3.566-2.768,3.566-6.188V12.575a8.861,8.861,0,0,0,.408,1.381L11.717,24.3c.707,1.757,1.837,2.7,2.987,2.7a2.735,2.735,0,0,0,2.086-1.144C18.436,23.857,18.834,19.918,17.681,17.061ZM5.094,14.625H2.038V8.437c0-1.464.685-2.652,1.528-2.652S5.094,6.973,5.094,8.437Zm6.2,2.481L9.208,11.929a4.431,4.431,0,0,1-.264-2.077,3.394,3.394,0,0,1,.659-1.8,1.2,1.2,0,0,1,.917-.5c.525,0,1.016.442,1.315,1.188l2.089,5.177Z" transform="translate(0 -2.25)" fill="#fff"/>
</svg>
