<svg xmlns="http://www.w3.org/2000/svg" width="22" height="19" viewBox="0 0 22 19">
  <path id="Icon_awesome-cart-arrow-down" data-name="Icon awesome-cart-arrow-down" d="M19.277,11.875H8.081l.25,1.187H18.583a.9.9,0,0,1,.894,1.088l-.211.9a2.074,2.074,0,0,1,1.206,1.87,2.141,2.141,0,0,1-4.277.057,2.042,2.042,0,0,1,.642-1.542H8.83a2.043,2.043,0,0,1,.643,1.484,2.141,2.141,0,0,1-4.275.112A2.064,2.064,0,0,1,6.269,15.12L3.586,2.375H.917A.9.9,0,0,1,0,1.484V.891A.9.9,0,0,1,.917,0H4.833a.911.911,0,0,1,.9.712l.35,1.663h15a.9.9,0,0,1,.894,1.088l-1.806,7.719A.911.911,0,0,1,19.277,11.875Zm-3.884-4.75H13.75V4.9a.452.452,0,0,0-.458-.445h-.917a.452.452,0,0,0-.458.445V7.125H10.273a.444.444,0,0,0-.324.76l2.56,2.487a.468.468,0,0,0,.648,0l2.56-2.487A.444.444,0,0,0,15.393,7.125Z" fill="#fff"/>
</svg>
