<svg xmlns="http://www.w3.org/2000/svg" width="14.99" height="17.71" viewBox="0 0 14.99 17.71">
  <path id="Icon_material-assignment-return" data-name="Icon material-assignment-return" d="M17.824,3.271H14.343a2.443,2.443,0,0,0-4.7,0H6.166A1.726,1.726,0,0,0,4.5,5.042v12.4A1.726,1.726,0,0,0,6.166,19.21H17.824a1.726,1.726,0,0,0,1.666-1.771V5.042A1.726,1.726,0,0,0,17.824,3.271Zm-5.829,0a.863.863,0,0,1,.833.886.834.834,0,1,1-1.666,0A.863.863,0,0,1,11.995,3.271ZM15.326,13.9H11.995v2.657L7.831,12.126,11.995,7.7v2.656h3.331Z" transform="translate(-4.5 -1.5)" fill="#fff"/>
</svg>
