<svg xmlns="http://www.w3.org/2000/svg" width="19" height="18.76" viewBox="0 0 19 18.76">
  <path id="Icon_metro-chart-line" data-name="Icon metro-chart-line" d="M20.777,19.769H19.2v-.783H18.4v.783H16.823v-.783H16.03v.783H14.448v-.783h-.793v.783H12.073v-.783H11.28v.783H9.7v-.783H8.9v.783H5.421l4.172-2.476,2.065-5.958,3.067,5.322,5.943-9.777-1.357-.805-4.55,7.485L11.3,7.549l-3.015,8.7L4.152,18.7V2.571H2.571v18.76h19V18.986h-.793Zm0-17.2h.793v.783h-.793Zm-2.375,0H19.2v.783H18.4Zm-2.373,0h.793v.783H16.03Zm-2.375,0h.793v.783h-.793Zm-2.375,0h.793v.783H11.28Zm-2.375,0H9.7v.783H8.9Zm-2.375,0h.793v.783H6.53Zm-2.375,0h.793v.783H4.155ZM20.777,4.916h.793V5.7h-.793Zm-2.375,0H19.2V5.7H18.4Zm-2.373,0h.793V5.7H16.03Zm-2.375,0h.793V5.7h-.793Zm-2.375,0h.793V5.7H11.28Zm-2.375,0H9.7V5.7H8.9Zm-2.375,0h.793V5.7H6.53Zm-2.375,0h.793V5.7H4.155ZM20.777,7.258h.793v.783h-.793Zm-4.748,0h.793v.783H16.03Zm-2.375,0h.793v.783h-.793Zm-4.75,0H9.7v.783H8.9Zm-2.375,0h.793v.783H6.53Zm-2.375,0h.793v.783H4.155ZM20.777,9.6h.793v.783h-.793Zm-7.123,0h.793v.783h-.793ZM8.9,9.6H9.7v.783H8.9ZM6.53,9.6h.793v.783H6.53Zm-2.375,0h.793v.783H4.155ZM20.777,11.95h.793v.783h-.793Zm-2.375,0H19.2v.783H18.4Zm-11.873,0h.793v.783H6.53Zm-2.375,0h.793v.783H4.155Zm16.623,2.345h.793v.783h-.793Zm-2.375,0H19.2v.783H18.4Zm-7.123,0h.793v.783H11.28Zm-4.75,0h.793v.783H6.53Zm-2.375,0h.793v.783H4.155Zm16.623,2.343h.793v.783h-.793Zm-2.375,0H19.2v.783H18.4Zm-2.373,0h.793v.783H16.03Zm-4.75,0h.793v.783H11.28Zm-7.125,0h.793v.783H4.155Z" transform="translate(-2.571 -2.571)" fill="#fff"/>
</svg>
