<svg xmlns="http://www.w3.org/2000/svg" width="12.953" height="15.471" viewBox="0 0 12.953 15.471">
  <path id="Icon_awesome-user-ninja" data-name="Icon awesome-user-ninja" d="M9.408,8.738,6.477,11.8,3.545,8.738A3.981,3.981,0,0,0,0,12.763V14.02a1.421,1.421,0,0,0,1.388,1.45H11.565a1.421,1.421,0,0,0,1.388-1.45V12.763A3.981,3.981,0,0,0,9.408,8.738ZM.925,5.8a2.705,2.705,0,0,0,2-.9A3.722,3.722,0,0,0,6.477,7.735a3.787,3.787,0,0,0,3.7-3.868A3.787,3.787,0,0,0,6.477,0,3.682,3.682,0,0,0,3.166,2.17,2.728,2.728,0,0,0,.925.967,2.928,2.928,0,0,0,2.171,3.384,2.928,2.928,0,0,0,.925,5.8ZM5.089,2.9H7.864a.946.946,0,0,1,.925.967H4.164A.946.946,0,0,1,5.089,2.9Z" fill="#fff"/>
</svg>
