<svg xmlns="http://www.w3.org/2000/svg" width="17.99" height="10.679" viewBox="0 0 17.99 10.679">
  <path id="Icon_awesome-money-bill" data-name="Icon awesome-money-bill" d="M17.091,4.5H.9a.9.9,0,0,0-.9.89v8.9a.9.9,0,0,0,.9.89H17.091a.9.9,0,0,0,.9-.89V5.39A.9.9,0,0,0,17.091,4.5ZM1.349,13.844v-1.78a1.789,1.789,0,0,1,1.8,1.78Zm0-6.229V5.835h1.8A1.789,1.789,0,0,1,1.349,7.615ZM9,12.509A2.487,2.487,0,0,1,6.746,9.84,2.487,2.487,0,0,1,9,7.17a2.487,2.487,0,0,1,2.249,2.67A2.487,2.487,0,0,1,9,12.509Zm7.646,1.335h-1.8a1.789,1.789,0,0,1,1.8-1.78Zm0-6.229a1.789,1.789,0,0,1-1.8-1.78h1.8Z" transform="translate(0 -4.5)" fill="#fff"/>
</svg>
