<svg xmlns="http://www.w3.org/2000/svg" width="14.548" height="16.334" viewBox="0 0 14.548 16.334">
  <path id="Icon_awesome-warehouse" data-name="Icon awesome-warehouse" d="M11.457,11.231H3.1c-.1,0-.182.115-.182.255l0,1.531c0,.14.082.255.182.255h8.358c.1,0,.182-.115.182-.255V11.487C11.639,11.346,11.557,11.231,11.457,11.231Zm0,3.063H3.094c-.1,0-.182.115-.182.255l0,1.531c0,.14.082.255.182.255h8.365c.1,0,.182-.115.182-.255V14.549C11.639,14.409,11.557,14.294,11.457,14.294Zm0-6.126H3.105c-.1,0-.182.115-.182.255l0,1.531c0,.14.082.255.182.255h8.354c.1,0,.182-.115.182-.255V8.424C11.639,8.283,11.557,8.169,11.457,8.169Zm2.421-4.435L7.692.119a.809.809,0,0,0-.839,0L.671,3.734A1.634,1.634,0,0,0,0,5.147V16.081c0,.14.082.255.182.255H2c.1,0,.182-.115.182-.255V8.169c0-.562.332-1.021.741-1.021h8.7c.409,0,.741.459.741,1.021v7.912c0,.14.082.255.182.255h1.819c.1,0,.182-.115.182-.255V5.147A1.634,1.634,0,0,0,13.878,3.734Z" transform="translate(0 -0.002)" fill="#fff"/>
</svg>
